<svg xmlns="http://www.w3.org/2000/svg" viewBox="0 0 48 48" width="48" height="48">
  <defs>
    <linearGradient id="canvaGradient" x1="0%" y1="0%" x2="100%" y2="100%">
      <stop offset="0%" style="stop-color:#00C4CC;stop-opacity:1" />
      <stop offset="100%" style="stop-color:#7D2AE8;stop-opacity:1" />
    </linearGradient>
  </defs>
  <circle cx="24" cy="24" r="22" fill="url(#canvaGradient)"/>
  <path fill="#FFFFFF" d="M24 10c-7.732 0-14 6.268-14 14s6.268 14 14 14c2.125 0 4.133-.474 5.933-1.322-1.178-1.39-1.933-3.17-1.933-5.178 0-4.418 3.582-8 8-8 2.008 0 3.788.755 5.178 1.933C37.526 28.133 38 26.125 38 24c0-7.732-6.268-14-14-14zm-3.5 19c-1.381 0-2.5-1.119-2.5-2.5v-9c0-1.381 1.119-2.5 2.5-2.5h7c1.381 0 2.5 1.119 2.5 2.5 0 .828-.672 1.5-1.5 1.5s-1.5-.672-1.5-1.5h-6v9h6c0-.828.672-1.5 1.5-1.5s1.5.672 1.5 1.5c0 1.381-1.119 2.5-2.5 2.5h-7z"/>
</svg>
